<svg xmlns="http://www.w3.org/2000/svg" version="1.1" xmlns:xlink="http://www.w3.org/1999/xlink" xmlns:svgjs="http://svgjs.dev/svgjs" width="2000" height="1753" viewBox="0 0 2000 1753"><g transform="matrix(1,0,0,1,1.2173083979424746,0.5372399550894897)"><svg viewBox="0 0 373 327" data-background-color="#ffffff" preserveAspectRatio="xMidYMid meet" height="1753" width="2000" xmlns="http://www.w3.org/2000/svg" xmlns:xlink="http://www.w3.org/1999/xlink"><g id="tight-bounds" transform="matrix(1,0,0,1,-0.22702801621628055,-0.10021532533613708)"><svg viewBox="0 0 373.45405603243256 327.2" height="327.2" width="373.45405603243256"><g><svg viewBox="0 0 488.86272 428.31475358272354" height="327.2" width="373.45405603243256"><g transform="matrix(1,0,0,1,46.67136000000002,303.2632010105213)"><svg viewBox="0 0 395.52 125.05155257220223" height="125.05155257220223" width="395.52"><g id="textblocktransform"><svg viewBox="0 0 395.52 125.05155257220223" height="125.05155257220223" width="395.52" id="textblock"><g><svg viewBox="0 0 395.52 125.05155257220223" height="125.05155257220223" width="395.52"><g transform="matrix(1,0,0,1,0,0)"><svg width="395.52" viewBox="-0.000007791604660066856 0.0001400000000015048 147.3378421177086 46.58364999999999" height="125.05155257220223" data-palette-color="#ffd700"><g class="wordmark-text-0" data-fill-palette-color="primary" id="text-0"><path d="M5.657 13.982v0c1.193-0.362 2.697-0.835 4.512-1.421 1.823-0.581 3.032-0.961 3.625-1.14v0c5.098-1.545 9.524-1.25 13.278 0.885 3.755 2.136 6.248 5.236 7.48 9.3v0c1.375 4.536 1.084 8.756-0.875 12.658-1.957 3.909-5.468 6.632-10.534 8.168v0c-0.376 0.114-1.503 0.421-3.378 0.92-1.882 0.501-3.444 0.957-4.685 1.368v0l-5.631 1.864c-0.118-0.069-0.235-0.291-0.349-0.668v0c-0.132-0.434-0.153-0.664-0.063-0.691v0c0.408-0.124 0.977-0.418 1.707-0.883 0.732-0.459 1.132-0.852 1.2-1.179v0c0.109-0.444-0.225-1.949-1.003-4.513v0l-5.373-17.724c-0.559-1.844-1.079-3.156-1.56-3.937v0c-0.165-0.222-0.695-0.315-1.589-0.281-0.895 0.035-1.547 0.114-1.956 0.238v0c-0.121 0.037-0.239-0.133-0.353-0.51v0c-0.124-0.408-0.143-0.691-0.059-0.849v0c1.644-0.436 3.513-0.971 5.606-1.605zM9.444 19.03v0l5.632 18.575c0.398 1.314 0.991 2.43 1.778 3.348v0c0.222 0.274 1.133 0.256 2.731-0.055 1.59-0.315 2.81-0.601 3.659-0.858v0c7.19-2.18 9.378-7.911 6.563-17.194v0c-1.081-3.566-2.948-6.313-5.601-8.239-2.647-1.928-5.785-2.342-9.415-1.242v0l-0.23 0.07c-3.381 1.025-5.181 1.846-5.398 2.462v0c-0.238 0.685-0.144 1.73 0.281 3.133z" fill="#ffd700" data-fill-palette-color="primary"></path><path d="M46.318 33.292c0.616 0.388 1.363 0.517 2.24 0.388 0.871-0.128 1.669-0.518 2.395-1.171 0.733-0.654 1.059-1.254 0.978-1.802v0l-0.734-4.996c-0.238 0.17-0.834 0.49-1.79 0.961-0.955 0.471-1.698 0.87-2.229 1.197-0.532 0.321-1.021 0.804-1.465 1.448-0.451 0.646-0.621 1.341-0.512 2.087v0c0.128 0.871 0.5 1.5 1.117 1.888zM48.229 14.605v0c1.774-0.261 3.114-0.02 4.018 0.723 0.898 0.744 1.487 2.069 1.767 3.975v0l1.647 11.199c0.1 0.679 0.361 1.22 0.785 1.624 0.422 0.396 0.94 0.549 1.553 0.458v0c0.455-0.067 0.989-0.375 1.603-0.923v0c0.125-0.018 0.207 0.101 0.245 0.359v0c0.062 0.422 0.033 0.773-0.088 1.054v0c-1.16 1.323-2.208 2.053-3.145 2.19v0c-0.745 0.11-1.503-0.092-2.272-0.605-0.77-0.513-1.333-1.091-1.69-1.733v0c-0.033 0.005-0.139 0.128-0.32 0.371-0.173 0.241-0.418 0.526-0.733 0.855-0.316 0.323-0.687 0.664-1.113 1.023-0.426 0.359-0.94 0.684-1.544 0.975-0.598 0.283-1.221 0.473-1.868 0.568v0c-1.491 0.219-2.779 0.004-3.865-0.644-1.086-0.649-1.745-1.765-1.978-3.348v0c-0.105-0.712-0.025-1.408 0.239-2.087 0.263-0.686 0.606-1.265 1.028-1.738 0.429-0.474 1.031-0.984 1.807-1.529 0.782-0.546 1.455-0.969 2.017-1.267 0.57-0.293 1.316-0.672 2.238-1.138 0.922-0.466 1.565-0.81 1.931-1.032v0c0.276-0.142 0.385-0.404 0.329-0.786v0l-0.536-3.641c-0.152-1.036-0.593-1.789-1.323-2.262-0.729-0.466-1.545-0.632-2.449-0.499v0c-0.97 0.143-1.729 0.591-2.278 1.346-0.548 0.761-0.745 1.673-0.588 2.735v0c0.167 1.134-0.413 1.799-1.739 1.994v0c-0.904 0.133-1.579-0.081-2.025-0.642v0c-0.205-1.392 0.608-2.923 2.438-4.594 1.835-1.678 3.805-2.672 5.909-2.981z" fill="#ffd700" data-fill-palette-color="primary"></path><path d="M70.82 14.761v0c-1.892 0.058-3.352 0.951-4.379 2.676-1.02 1.732-1.496 3.725-1.426 5.977v0c0.074 2.386 0.774 4.432 2.1 6.138 1.327 1.706 3.116 2.525 5.368 2.455v0c1.113-0.034 1.971-0.311 2.576-0.83 0.604-0.526 0.893-1.215 0.867-2.067v0l-0.361-11.655c-0.021-0.686-0.408-1.321-1.159-1.905-0.758-0.577-1.954-0.84-3.586-0.79zM71.396 12.682v0c1.406-0.043 2.641 0.195 3.704 0.716v0c0.227-0.007 0.331-0.304 0.313-0.89v0l-0.164-5.288c-0.034-1.113-0.167-2.156-0.397-3.129v0c-0.176-0.515-1.017-0.749-2.523-0.703v0l-0.439 0.014c-0.193 0.006-0.295-0.171-0.307-0.531v0c-0.016-0.526 0.072-0.793 0.266-0.798v0c0.977-0.124 1.879-0.281 2.706-0.474 0.828-0.186 1.476-0.369 1.944-0.55 0.468-0.175 0.863-0.34 1.185-0.497 0.322-0.157 0.565-0.288 0.729-0.393v0l0.195-0.156 0.09-0.003c0.133-0.004 0.269 0.082 0.408 0.258 0.132 0.176 0.217 0.347 0.256 0.512v0c-0.328 1.051-0.464 2.475-0.408 4.275v0l0.681 22.039c0.048 1.566 0.187 2.802 0.415 3.709v0c0.067 0.231 0.249 0.406 0.546 0.523 0.304 0.124 0.61 0.198 0.917 0.222 0.314 0.024 0.618 0.031 0.911 0.022v0l0.442 0.036c0.101 0.03 0.157 0.222 0.168 0.576v0c0.015 0.493-0.077 0.743-0.277 0.748v0c-0.485 0.048-1.03 0.132-1.633 0.251-0.603 0.112-1.173 0.233-1.71 0.363-0.529 0.136-1.022 0.268-1.479 0.396-0.456 0.127-0.829 0.246-1.119 0.355v0l-0.437 0.103c-0.193 0.006-0.298-0.268-0.316-0.82v0l-0.018-0.59c-0.006-0.193-0.075-0.254-0.206-0.184v0c-1.794 1.069-3.508 1.629-5.14 1.68v0c-2.712 0.084-5.011-0.812-6.896-2.689-1.892-1.869-2.879-4.14-2.962-6.811v0c-0.098-3.172 0.935-5.992 3.1-8.46 2.165-2.468 4.65-3.745 7.455-3.832z" fill="#ffd700" data-fill-palette-color="primary"></path><path d="M86.915 32.061l0.788-12.716c0.079-1.271-0.096-2.163-0.525-2.677v0c-0.302-0.413-0.684-0.707-1.148-0.883-0.463-0.176-0.851-0.273-1.164-0.293-0.306-0.019-0.457-0.062-0.453-0.128v0c0.049-0.785 0.17-1.185 0.365-1.2v0c3.493-0.311 5.768-0.598 6.826-0.859v0c0.033 0.002 0.084-0.002 0.151-0.011 0.068-0.016 0.102-0.024 0.102-0.024v0c0.126 0.008 0.198 0.153 0.213 0.434 0.016 0.282 0.003 0.484-0.037 0.609v0c-0.24 1.294-0.393 2.464-0.458 3.509v0l-0.828 13.354c-0.256 4.139-1.082 7.163-2.475 9.074v0c-0.897 1.22-2.002 2.281-3.313 3.182-1.318 0.9-2.512 1.514-3.581 1.842v0c-0.281-0.211-0.478-0.47-0.593-0.778v0c-0.05-0.163-0.043-0.277 0.021-0.34v0l0.607-0.253c0.405-0.175 0.875-0.49 1.411-0.944 0.536-0.461 1.089-1.081 1.658-1.861 0.576-0.786 1.094-1.966 1.552-3.541 0.458-1.575 0.752-3.407 0.881-5.496zM87.899 6.964c-0.443-0.502-0.644-1.095-0.601-1.781 0.042-0.685 0.315-1.25 0.816-1.693 0.502-0.443 1.095-0.644 1.781-0.601 0.685 0.042 1.25 0.315 1.693 0.816 0.443 0.502 0.644 1.095 0.601 1.781-0.042 0.685-0.315 1.25-0.817 1.693-0.502 0.443-1.095 0.644-1.78 0.601-0.685-0.042-1.25-0.315-1.693-0.816z" fill="#ffd700" data-fill-palette-color="primary"></path><path d="M100.611 32.569c0.479 0.548 1.157 0.887 2.034 1.015 0.871 0.127 1.748-0.018 2.631-0.435 0.889-0.416 1.374-0.898 1.454-1.445v0l0.73-4.997c-0.277 0.094-0.94 0.23-1.99 0.407-1.05 0.177-1.876 0.346-2.479 0.507-0.602 0.155-1.208 0.477-1.819 0.967-0.617 0.489-0.98 1.107-1.089 1.852v0c-0.127 0.871 0.049 1.58 0.528 2.129zM107.804 15.216v0c1.775 0.259 2.988 0.874 3.641 1.846 0.647 0.97 0.831 2.409 0.552 4.315v0l-1.635 11.201c-0.099 0.679-0.004 1.273 0.286 1.78 0.291 0.501 0.743 0.796 1.356 0.885v0c0.455 0.066 1.055-0.075 1.8-0.424v0c0.125 0.018 0.169 0.156 0.132 0.413v0c-0.062 0.422-0.19 0.75-0.387 0.985v0c-1.491 0.934-2.704 1.333-3.641 1.196v0c-0.745-0.109-1.413-0.52-2.003-1.232-0.59-0.713-0.964-1.428-1.122-2.145v0c-0.033-0.005-0.17 0.083-0.412 0.263-0.235 0.181-0.551 0.384-0.948 0.61-0.396 0.218-0.849 0.439-1.36 0.66-0.511 0.222-1.097 0.386-1.759 0.491-0.655 0.1-1.305 0.102-1.952 0.008v0c-1.491-0.218-2.663-0.793-3.517-1.726-0.854-0.933-1.166-2.191-0.934-3.775v0c0.104-0.712 0.38-1.356 0.827-1.93 0.449-0.581 0.943-1.038 1.484-1.37 0.547-0.331 1.27-0.647 2.169-0.947 0.906-0.299 1.671-0.511 2.296-0.635 0.63-0.117 1.454-0.266 2.471-0.447 1.017-0.182 1.732-0.326 2.145-0.435v0c0.305-0.057 0.485-0.276 0.541-0.659v0l0.532-3.641c0.151-1.036-0.055-1.884-0.619-2.546-0.565-0.655-1.299-1.049-2.202-1.181v0c-0.97-0.142-1.826 0.07-2.569 0.636-0.744 0.572-1.193 1.389-1.349 2.45v0c-0.166 1.135-0.911 1.605-2.237 1.412v0c-0.904-0.132-1.489-0.531-1.756-1.196v0c0.203-1.392 1.421-2.626 3.654-3.701 2.24-1.081 4.412-1.468 6.516-1.161z" fill="#ffd700" data-fill-palette-color="primary"></path><path d="M118.389 33.091v0l4.872-20.654c0.256-1.084 0.402-2.124 0.439-3.122v0c-0.043-0.544-0.794-0.989-2.254-1.333v0l-0.429-0.101c-0.188-0.044-0.241-0.242-0.158-0.593v0c0.121-0.513 0.275-0.747 0.464-0.702v0c0.975 0.134 1.888 0.216 2.737 0.245 0.848 0.036 1.521 0.027 2.02-0.027 0.497-0.047 0.922-0.104 1.273-0.172 0.352-0.068 0.617-0.132 0.796-0.193v0l0.229-0.1 0.097 0.023c0.123 0.029 0.229 0.147 0.318 0.353 0.088 0.206 0.13 0.394 0.124 0.563v0c-0.589 0.93-1.09 2.27-1.504 4.022v0l-5.129 21.744c-0.436 1.849-0.644 3.297-0.624 4.342v0c0.013 0.236 0.374 0.547 1.085 0.934 0.717 0.388 1.234 0.62 1.552 0.695v0c0.097 0.023 0.115 0.226 0.052 0.608-0.058 0.39-0.135 0.66-0.232 0.809v0c-3.141-0.912-4.825-1.395-5.053-1.449v0c-0.188-0.044-1.94-0.372-5.254-0.983v0c-0.093-0.159-0.092-0.436 0.001-0.832 0.093-0.396 0.202-0.579 0.325-0.55v0c0.383 0.09 0.972 0.12 1.767 0.088 0.795-0.032 1.251-0.15 1.368-0.355v0c0.439-0.876 0.812-1.963 1.118-3.26z" fill="#ffd700" data-fill-palette-color="primary"></path><path d="M140.574 25.074v0c-1.617-0.524-3.078-0.233-4.382 0.872-1.304 1.105-2.102 2.108-2.394 3.009v0c-0.07 0.216-0.01 0.354 0.181 0.416v0l9.085 2.943c0.159 0.051 0.288-0.078 0.389-0.389v0c0.323-0.996 0.271-2.274-0.156-3.835-0.42-1.559-1.328-2.564-2.723-3.016zM141.601 23.494v0c1.427 0.462 2.598 1.143 3.512 2.041 0.908 0.897 1.512 1.867 1.811 2.91 0.296 1.035 0.433 2.039 0.412 3.014-0.021 0.974-0.173 1.896-0.454 2.764v0c-0.201 0.622-0.42 0.971-0.655 1.049-0.229 0.08-0.607 0.035-1.134-0.136v0l-11.749-3.805c-0.254-0.082-0.406-0.044-0.457 0.114v0c-0.633 1.953-0.623 3.947 0.028 5.98 0.646 2.031 2.088 3.409 4.327 4.135v0c0.653 0.212 1.295 0.349 1.926 0.413 0.629 0.071 1.18 0.088 1.655 0.053 0.474-0.036 0.888-0.091 1.241-0.166 0.347-0.077 0.657-0.158 0.931-0.245v0l0.397-0.123c0.184 0.06 0.211 0.289 0.082 0.688v0c-0.082 0.254-0.266 0.506-0.55 0.758v0c-0.903 0.668-2.073 1.154-3.511 1.459-1.437 0.305-2.873 0.226-4.306-0.239v0c-2.581-0.836-4.48-2.523-5.697-5.062-1.223-2.541-1.382-5.209-0.476-8.006v0c1.058-3.266 2.772-5.563 5.143-6.89 2.371-1.327 4.879-1.563 7.524-0.706z" fill="#ffd700" data-fill-palette-color="primary"></path></g></svg></g></svg></g></svg></g></svg></g><g><svg viewBox="0 0 488.86272 259.39654530612245" height="259.39654530612245" width="488.86272"><g><svg xmlns="http://www.w3.org/2000/svg" xmlns:xlink="http://www.w3.org/1999/xlink" version="1.0" x="0" y="0" viewBox="8 19 49 26" style="enable-background:new 0 0 64 64;" xml:space="preserve" height="259.39654530612245" width="488.86272" class="icon-icon-0" data-fill-palette-color="accent" id="icon-0"><g fill="#524500" data-fill-palette-color="accent"><path d="M56 19H9c-0.551 0-1 0.449-1 1v24c0 0.551 0.449 1 1 1h47c0.551 0 1-0.449 1-1V20C57 19.449 56.551 19 56 19zM56 44.5V44H9V20h47v24c0 0 0 0 0.001 0L56 44.5z" fill="#524500" data-fill-palette-color="accent"></path><path d="M54.5 21h-44c-0.276 0-0.5 0.224-0.5 0.5v21c0 0.276 0.224 0.5 0.5 0.5h44c0.276 0 0.5-0.224 0.5-0.5v-21C55 21.224 54.776 21 54.5 21zM11 42V22h16.944C24.149 23.736 21.5 27.561 21.5 32s2.649 8.264 6.444 10H11zM32.5 22c5.514 0 10 4.486 10 10s-4.486 10-10 10-10-4.486-10-10S26.986 22 32.5 22zM54 42H37.056C40.851 40.264 43.5 36.439 43.5 32s-2.649-8.264-6.444-10H54V42z" fill="#524500" data-fill-palette-color="accent"></path><path d="M29.5 37c-0.276 0-0.5 0.224-0.5 0.5s0.224 0.5 0.5 0.5h2c0.276 0 0.5-0.224 0.5-0.5S31.776 37 31.5 37H31v-2h1.5c0.276 0 0.5-0.224 0.5-0.5S32.776 34 32.5 34H31v-1h2.5c0.276 0 0.5-0.224 0.5-0.5S33.776 32 33.5 32H31v-4h4v0.5c0 0.276 0.224 0.5 0.5 0.5s0.5-0.224 0.5-0.5v-1c0-0.276-0.224-0.5-0.5-0.5h-5-1c-0.276 0-0.5 0.224-0.5 0.5s0.224 0.5 0.5 0.5H30v6h-0.5c-0.276 0-0.5 0.224-0.5 0.5s0.224 0.5 0.5 0.5H30v2H29.5z" fill="#524500" data-fill-palette-color="accent"></path></g></svg></g></svg></g><g></g></svg></g><defs></defs></svg><rect width="373.45405603243256" height="327.2" fill="none" stroke="none" visibility="hidden"></rect></g></svg></g></svg>